<?xml version="1.0" encoding="UTF-8" standalone="no"?>
<!DOCTYPE svg PUBLIC "-//W3C//DTD SVG 20010904//EN" "http://www.w3.org/TR/2001/REC-SVG-20010904/DTD/svg10.dtd">
<svg version="1.0" xmlns="http://www.w3.org/2000/svg" width="512.000000pt" height="512.000000pt" viewBox="0 0 512.000000 512.000000" preserveAspectRatio="xMidYMid meet">

<g transform="translate(0.000000,512.000000) scale(0.100000,-0.100000)" fill="#ffffff" stroke="none">
<path d="M1835 5066 c-326 -64 -695 -208 -971 -379 -170 -106 -194 -132 -194 -211 0 -64 25 -103 94 -145 31 -18 56 -36 56 -40 0 -3 -20 -21 -44 -38 -65 -50 -227 -214 -301 -306 -247 -307 -396 -652 -457 -1062 -17 -117 -17 -487 0 -625 13 -103 50 -297 71 -377 15 -55 58 -99 111 -113 59 -16 117 7 164 63 19 23 36 39 39 37 2 -3 18 -48 37 -100 132 -377 369 -740 696 -1065 157 -157 383 -347 440 -371 102 -43 223 58 199 167 -4 16 -4 29 -1 29 3 0 51 -36 108 -81 132 -103 384 -271 518 -346 92 -51 112 -58 160 -58 48 0 67 7 160 59 144 80 361 225 503 335 65 50 120 91 123 91 3 0 2 -15 -2 -34 -20 -108 99 -204 200 -162 45 19 198 142 353 285 271 248 509 561 662 868 58 118 118 260 142 341 6 23 15 42 19 42 4 0 21 -18 38 -39 43 -54 104 -77 162 -61 53 14 96 58 111 113 21 79 58 273 71 377 17 135 17 519 -1 625 -90 561 -306 962 -719 1336 l-84 75 57 35 c69 42 95 80 95 144 0 69 -23 99 -130 170 -264 175 -562 304 -902 390 -309 78 -536 50 -778 -95 l-83 -50 -54 36 c-76 50 -185 99 -278 124 -103 27 -291 35 -390 16z m420 -946 c85 -27 183 -77 252 -129 l52 -40 45 35 c222 170 513 210 768 108 35 -14 102 -52 150 -84 l87 -58 48 15 c32 11 87 16 168 17 147 0 206 -19 290 -95 77 -71 108 -139 113 -249 7 -139 -30 -239 -137 -372 l-60 -74 11 -45 c6 -24 11 -109 12 -189 0 -117 -4 -162 -22 -235 -55 -220 -203 -423 -382 -523 l-45 -25 0 -271 c0 -256 -1 -275 -23 -346 -42 -133 -97 -226 -192 -321 -147 -149 -298 -218 -493 -227 -109 -5 -227 8 -297 33 -33 12 -46 11 -106 -7 -56 -17 -99 -21 -224 -22 -146 -1 -160 1 -235 27 -211 74 -392 242 -471 439 -45 110 -55 191 -53 452 l1 239 -73 49 c-176 117 -296 287 -349 493 -28 106 -36 293 -17 400 l13 80 -44 52 c-104 126 -152 243 -152 374 0 112 26 177 104 255 87 87 145 108 296 108 79 0 131 -5 167 -16 l52 -17 83 56 c99 66 167 98 268 124 103 26 294 21 395 -11z"/>
<path d="M1955 3848 c-78 -14 -186 -73 -264 -143 -89 -81 -133 -97 -200 -71 -129 49 -155 56 -204 56 -72 0 -97 -19 -97 -74 0 -65 41 -135 125 -213 42 -40 77 -81 81 -97 7 -31 2 -86 -20 -201 -30 -158 -14 -300 48 -431 46 -98 125 -175 244 -239 148 -80 162 -103 150 -248 -13 -164 -9 -479 8 -542 28 -108 96 -201 196 -266 82 -53 166 -73 278 -67 50 3 94 8 97 12 4 3 -57 70 -134 149 -113 114 -143 150 -148 179 -7 36 8 423 25 668 9 130 9 137 -13 180 -21 42 -31 50 -184 130 -179 94 -208 117 -224 171 -32 106 62 207 171 186 16 -4 104 -46 196 -94 200 -105 258 -153 309 -256 48 -98 57 -162 45 -332 -5 -77 -14 -232 -20 -345 l-9 -205 74 -75 75 -75 74 75 74 75 -13 275 c-8 151 -17 307 -20 345 -14 150 30 273 135 375 57 55 93 78 242 154 162 82 179 88 221 84 60 -7 102 -38 122 -93 22 -55 14 -105 -23 -146 -16 -17 -100 -69 -192 -118 -156 -82 -166 -89 -188 -132 -22 -44 -22 -50 -13 -190 6 -79 15 -255 21 -390 10 -220 10 -250 -5 -285 -9 -23 -68 -90 -147 -171 -73 -73 -129 -136 -125 -139 3 -4 47 -9 97 -12 237 -13 426 127 480 358 10 41 12 125 7 346 -8 345 -11 332 112 399 116 63 191 124 237 192 104 152 127 326 75 559 -28 124 -21 144 78 242 85 85 121 147 121 210 0 54 -25 72 -100 72 -51 -1 -79 -8 -201 -56 -62 -24 -112 -9 -183 55 -243 221 -464 223 -721 7 -145 -122 -185 -122 -330 0 -105 88 -204 139 -295 154 -74 11 -77 11 -145 -2z"/>
</g>
</svg>